name ./resultDataOpenSim/trcMotMarkerGrf/sub06/grf-04-04.mot
datacolumns 19
datarows 12
range 0.53600000 0.58000000
endheader

                time	     ground_force_vx	     ground_force_vy	     ground_force_vz	     ground_force_px	     ground_force_py	     ground_force_pz	   l_ground_force_vx	   l_ground_force_vy	   l_ground_force_vz	   l_ground_force_px	   l_ground_force_py	   l_ground_force_pz	     ground_torque_x	     ground_torque_y	     ground_torque_z	   l_ground_torque_x	   l_ground_torque_y	   l_ground_torque_z	
          0.53600000	        141.47872034	        707.52260533	        -38.54072707	         -0.76152398	          0.00000000	          0.10941662	          0.00000000	          0.00000000	          0.00000000	          0.00000000	          0.00000000	          0.00000000	          0.00000000	          2.64177218	          0.00000000	          0.00000000	          0.00000000	          0.00000000	
          0.54000000	        150.77481761	        725.53845558	        -40.34540615	         -0.76164285	          0.00000000	          0.10933960	          0.00000000	          0.00000000	          0.00000000	          0.00000000	          0.00000000	          0.00000000	          0.00000000	          2.58474415	          0.00000000	          0.00000000	          0.00000000	          0.00000000	
          0.54400000	        160.46613391	        742.25596143	        -42.25530763	         -0.76176229	          0.00000000	          0.10927730	          0.00000000	          0.00000000	          0.00000000	          0.00000000	          0.00000000	          0.00000000	          0.00000000	          2.48465848	          0.00000000	          0.00000000	          0.00000000	          0.00000000	
          0.54800000	        170.55993137	        757.47703372	        -43.99409949	         -0.76189023	          0.00000000	          0.10922846	          0.00000000	          0.00000000	          0.00000000	          0.00000000	          0.00000000	          0.00000000	          0.00000000	          2.36534956	          0.00000000	          0.00000000	          0.00000000	          0.00000000	
          0.55200000	        180.98001428	        771.01222637	        -45.29128132	         -0.76202977	          0.00000000	          0.10918557	          0.00000000	          0.00000000	          0.00000000	          0.00000000	          0.00000000	          0.00000000	          0.00000000	          2.25393446	          0.00000000	          0.00000000	          0.00000000	          0.00000000	
          0.55600000	        191.57931586	        782.68299488	        -45.93209903	         -0.76217451	          0.00000000	          0.10913739	          0.00000000	          0.00000000	          0.00000000	          0.00000000	          0.00000000	          0.00000000	          0.00000000	          2.17537312	          0.00000000	          0.00000000	          0.00000000	          0.00000000	
          0.56000000	        202.16331833	        792.32704348	        -45.79789773	         -0.76230814	          0.00000000	          0.10907310	          0.00000000	          0.00000000	          0.00000000	          0.00000000	          0.00000000	          0.00000000	          0.00000000	          2.14748498	          0.00000000	          0.00000000	          0.00000000	          0.00000000	
          0.56400000	        212.51505692	        799.81026893	        -44.88692292	         -0.76241181	          0.00000000	          0.10898593	          0.00000000	          0.00000000	          0.00000000	          0.00000000	          0.00000000	          0.00000000	          0.00000000	          2.17756117	          0.00000000	          0.00000000	          0.00000000	          0.00000000	
          0.56800000	        222.41615480	        805.03536113	        -43.30742927	         -0.76247123	          0.00000000	          0.10887335	          0.00000000	          0.00000000	          0.00000000	          0.00000000	          0.00000000	          0.00000000	          0.00000000	          2.26133124	          0.00000000	          0.00000000	          0.00000000	          0.00000000	
          0.57200000	        231.66334647	        807.92867516	        -41.25057806	         -0.76247826	          0.00000000	          0.10873606	          0.00000000	          0.00000000	          0.00000000	          0.00000000	          0.00000000	          0.00000000	          0.00000000	          2.38444529	          0.00000000	          0.00000000	          0.00000000	          0.00000000	
          0.57600000	        240.08153494	        808.41769137	        -38.95624321	         -0.76242164	          0.00000000	          0.10858225	          0.00000000	          0.00000000	          0.00000000	          0.00000000	          0.00000000	          0.00000000	          0.00000000	          2.52598633	          0.00000000	          0.00000000	          0.00000000	          0.00000000	
          0.58000000	        247.53445759	        806.43769233	        -36.67230706	         -0.76229066	          0.00000000	          0.10842395	          0.00000000	          0.00000000	          0.00000000	          0.00000000	          0.00000000	          0.00000000	          0.00000000	          2.66301708	          0.00000000	          0.00000000	          0.00000000	          0.00000000	
